<?xml version="1.0" encoding="UTF-8"?>
<svg id="Layer_1" data-name="Layer 1" xmlns="http://www.w3.org/2000/svg" viewBox="0 0 1000 1000">
  <defs>
    <style>
      .cls-1 {
        fill: #e43958;
        fill-rule: evenodd;
      }
    </style>
  </defs>
  <path class="cls-1" d="M608.18,22.86l10.2,225.49L477.47,9.58c-40.81,1.9-81.3,8.54-119.24,19.92l114.77,195.44L229.43,88.64c-33.48,21.82-64.4,47.75-91.82,77.16l199.26,111-279.6,4.11c-18.17,35.1-31.56,73.05-40.17,112.27l227.95-3.48L6.9,533.29c2.55,40.48,10.84,79.69,22,117.01l194.48-116.38-132.63,242.25c22.95,33.21,49.1,63.25,79.07,89.81l108.72-197.02,7.97,274.19c36.34,17.39,74.28,30.04,114.14,37.95l-6.7-223.59,145.38,232.13c40.81-3.48,80.34-11.38,117.96-24.03l-119.24-189.43,243.57,127.13c33.48-22.77,63.76-49.97,89.91-79.69l-199.26-103.73,275.77-12.02c16.9-36.05,29.65-73.69,37.62-113.85l-224.76,10.12,232.73-147.69c-3.51-40.48-12.11-79.69-25.51-117.01l-189.69,121.12,130.71-239.4c-23.59-32.57-51.01-62.62-81.3-88.55l-98.51,176.15-10.2-244.14c-34.11-18.03-71.41-32.57-110.95-41.75h0ZM501.38,284.71c120.83,0,218.07,96.46,218.07,215.68s-97.24,215.68-218.07,215.68-218.07-96.46-218.07-215.68,97.56-215.68,218.07-215.68Z"/>
</svg>